<svg width="65" height="65" viewBox="0 0 65 65" fill="none" xmlns="http://www.w3.org/2000/svg">
<path d="M31.1296 31.5304C31.6081 32.0288 32.1127 32.4973 32.6435 32.936C33.4804 33.6917 34.3173 34.2848 35.0458 35.0404C35.1328 35.1532 35.2454 35.2436 35.3743 35.304C35.5032 35.3645 35.6447 35.3932 35.787 35.3879C35.9293 35.3826 36.0682 35.3434 36.1923 35.2735C36.3163 35.2037 36.4219 35.1052 36.5002 34.9863C36.5931 34.8392 36.6381 34.667 36.6288 34.4933C36.6196 34.3196 36.5567 34.153 36.4487 34.0167C35.9549 33.0066 35.3768 32.04 34.7208 31.1269C34.4352 30.7419 34.1192 30.3805 33.7756 30.0463C33.4396 29.6953 33.0694 29.3786 32.6706 29.101L31.9665 28.6948C33.7553 27.0048 35.1297 24.9244 35.9823 22.6159C36.835 20.3074 37.1429 17.8331 36.8821 15.386C36.3133 7.77021 31.1567 0.560629 21.9781 0.696046C11.3669 1.04813 5.47896 8.4175 5.23791 15.7896C5.1337 18.6982 5.94556 21.5661 7.55889 23.9886C9.17222 26.411 11.5056 28.2656 14.2296 29.2906C11.7891 30.7539 9.49221 32.4441 7.36937 34.339C5.61674 35.8461 4.07292 37.5803 2.77875 39.4956C1.63199 41.1068 0.81504 42.9287 0.374879 44.8567C-0.0652824 46.7847 -0.119972 48.7806 0.213955 50.7298C0.239505 50.8484 0.288941 50.9606 0.359248 51.0595C0.429556 51.1584 0.519263 51.2419 0.622904 51.305C0.726545 51.3681 0.841948 51.4094 0.96208 51.4265C1.08221 51.4435 1.20456 51.4359 1.32166 51.4042C1.54378 51.3644 1.74262 51.242 1.87825 51.0617C2.01389 50.8813 2.07628 50.6563 2.05291 50.4319C1.9206 47.0221 3.05517 43.684 5.23791 41.061C6.47652 39.3783 7.8352 37.7948 9.31395 36.3106C11.5046 34.0809 13.831 31.9888 16.2798 30.0463C17.8858 30.4796 19.5325 30.7342 21.1954 30.8046C21.297 30.8116 21.3989 30.798 21.4952 30.7647C21.5914 30.7314 21.68 30.6791 21.7555 30.6109C21.8311 30.5426 21.8922 30.4598 21.9351 30.3675C21.9779 30.2752 22.0018 30.1751 22.0052 30.0733C22.0131 29.8738 21.9448 29.6787 21.8139 29.5277C21.6831 29.3768 21.4997 29.2813 21.301 29.2608C11.9058 28.4808 7.61312 22.4873 7.80271 16.3827H8.01937C9.32778 16.9892 10.7375 17.3473 12.1767 17.439C12.7869 17.504 13.399 17.504 14.0129 17.439C14.6189 17.3493 15.2155 17.2042 15.795 17.0056C17.1925 16.5039 18.4569 15.6897 19.4919 14.625C19.6087 14.4813 19.6747 14.3029 19.6796 14.1177C19.6845 13.9326 19.628 13.751 19.519 13.6013C20.2141 14.0183 20.9345 14.3867 21.6802 14.7063C22.9829 15.3183 24.3506 15.7815 25.7562 16.0848C28.6407 16.6356 31.596 16.7088 34.5042 16.3015C34.9104 23.8604 30.5635 29.2338 24.3804 30.0706C24.1819 30.1257 24.0094 30.2496 23.894 30.4202C23.7786 30.5909 23.7277 30.7971 23.7506 31.0018C23.7734 31.2066 23.8684 31.3965 24.0186 31.5375C24.1687 31.6786 24.3642 31.7615 24.57 31.7715C26.469 31.6248 28.3126 31.0627 29.9704 30.1248C30.3225 30.6123 30.699 31.07 31.1296 31.5277M18.2812 13.3304C17.4524 13.8212 16.5348 14.1433 15.581 14.2783C15.1206 14.2783 14.6602 14.2783 14.1754 14.495L12.071 14.7929C10.8774 15.0067 9.66483 15.0965 8.45271 15.061C8.36471 15.0159 8.26723 14.9923 8.16833 14.9923C8.06943 14.9923 7.97195 15.0159 7.88396 15.061C8.12836 13.293 8.73423 11.5943 9.6638 10.0706C10.5934 8.54693 11.8267 7.231 13.2871 6.2048C14.4317 8.56862 16.0484 10.6729 18.0375 12.3879C18.3896 12.6858 18.7687 12.9296 19.1452 13.2004C19.0025 13.1405 18.8461 13.1212 18.6932 13.1447C18.5402 13.1681 18.3967 13.2333 18.2785 13.3331M26.3765 13.3331C23.9747 12.627 21.7042 11.5338 19.6544 10.0967C17.7306 8.78417 16.0575 7.13768 14.7144 5.23521C16.9974 4.14185 19.5011 3.58774 22.0323 3.61563C29.185 3.37188 33.3179 8.69105 34.3173 14.5519C31.6567 14.5607 29.0093 14.1774 26.4604 13.4144L26.3765 13.3331Z" fill="#18044C"/>
<path d="M22.7338 35.9044C22.7551 35.7913 22.7512 35.6749 22.7224 35.5635C22.6936 35.4521 22.6406 35.3484 22.5671 35.2598C22.4937 35.1713 22.4016 35.1 22.2975 35.051C22.1933 35.0021 22.0797 34.9767 21.9646 34.9767C21.8495 34.9767 21.7359 35.0021 21.6317 35.051C21.5276 35.1 21.4355 35.1713 21.3621 35.2598C21.2886 35.3484 21.2356 35.4521 21.2068 35.5635C21.178 35.6749 21.1741 35.7913 21.1954 35.9044C20.9246 37.2829 20.6267 38.6046 20.4642 40.0644V43.6556C20.5996 45.0586 20.8433 46.3558 21.0329 47.8129C21.0406 48.0515 21.1407 48.2777 21.312 48.4439C21.4832 48.6102 21.7124 48.7034 21.951 48.704C22.1824 48.6963 22.4018 48.5991 22.5629 48.4329C22.7241 48.2667 22.8144 48.0444 22.815 47.8129C22.9504 46.41 23.14 45.1127 23.2483 43.6556V40.1186C23.14 38.6317 22.8963 37.2829 22.7338 35.9044Z" fill="#36F4F4"/>
<path d="M62.1833 42.3583C62.6139 42.0604 62.9904 41.7354 63.0987 41.6569C63.6673 41.1701 64.1288 40.5708 64.4542 39.8968C64.7796 39.2227 64.9617 38.4886 64.9892 37.7406C65.0779 36.2767 64.6162 34.8325 63.6946 33.6917C63.1086 33.0156 62.4149 32.4409 61.6417 31.9908C61.3101 31.7817 60.9569 31.6092 60.5881 31.4763C60.213 31.3342 59.8234 31.2343 59.4262 31.1783C58.7955 31.0252 58.1392 31.0088 57.5016 31.1303C56.864 31.2517 56.2597 31.5082 55.7294 31.8825C55.1776 32.3821 54.7199 32.9765 54.3779 33.6375C54.1251 34.1322 53.8101 34.5827 53.4327 34.989C53.1995 34.8042 52.9562 34.6324 52.7042 34.4744L48.6823 30.531C48.5362 30.392 48.3423 30.3144 48.1406 30.3144C47.9389 30.3144 47.745 30.392 47.599 30.531C47.5292 30.6349 47.4668 30.7435 47.4121 30.856C47.2744 30.7701 47.1153 30.7245 46.953 30.7245C46.7907 30.7245 46.6316 30.7701 46.4939 30.856C45.871 31.3977 43.6312 33.0444 42.445 34.2577C41.9768 34.6803 41.6307 35.221 41.4429 35.8231C41.4158 36.1075 41.4835 36.3919 41.6325 36.6356C41.8762 37.069 42.7158 37.849 42.8783 38.1469C43.336 38.9675 43.5229 39.9127 43.4146 40.8471C43.4053 41.2183 43.2731 41.576 43.0389 41.8641C42.8046 42.1523 42.4815 42.3547 42.12 42.4396C41.6464 42.5188 41.16 42.4625 40.7171 42.2771C39.8801 41.9277 39.0903 41.4746 38.3662 40.9283C37.8804 40.4948 37.3565 40.1059 36.8008 39.7665C36.4164 39.5456 35.9628 39.4779 35.5306 39.5769C34.3679 39.8812 33.2841 40.4316 32.3524 41.1908C31.4207 41.9501 30.6629 42.9005 30.1302 43.9779C29.5367 45.1675 29.305 46.5051 29.4639 47.825C29.6227 49.145 30.1651 50.3893 31.0239 51.4042C33.3298 54.6025 35.962 57.5524 38.8781 60.2063C40.9407 62.0137 43.3614 63.3657 45.9821 64.174C47.0681 64.4448 48.2164 64.2904 49.1942 63.7433C50.865 62.7528 52.3687 61.5042 53.6494 60.0438C54.2452 59.3739 54.8031 58.6724 55.3231 57.9394C55.543 57.6215 55.6445 57.2365 55.6098 56.8515C55.5752 56.4665 55.4066 56.1058 55.1335 55.8323C54.3905 55.2201 53.7757 54.4672 53.3244 53.6169C53.1778 53.3576 53.1172 53.0586 53.1512 52.7627C53.1853 52.4668 53.3123 52.1894 53.514 51.9702C53.7464 51.7637 54.0227 51.6126 54.322 51.5281C54.6212 51.4437 54.9357 51.4282 55.2419 51.4827C56.1004 51.5667 56.9346 51.8131 57.6983 52.214C58.0233 52.3494 58.8873 53.0535 59.345 53.2404C59.6321 53.3758 59.949 53.43 60.2658 53.4029C60.7108 53.313 61.1162 53.0857 61.425 52.7529C61.8421 52.2817 62.2294 51.7869 62.5869 51.2688C63.5754 50.2125 64.1658 48.8502 64.2606 47.4067C64.1791 45.9857 63.6177 44.6346 62.6681 43.5744C62.5869 43.3035 62.3458 42.816 62.1833 42.3583ZM59.2637 42.9C59.7205 43.6656 60.2423 44.3851 60.8292 45.0585C61.4114 45.7004 61.7635 46.5183 61.8285 47.3796C61.7145 48.2242 61.3024 49.0003 60.6667 49.5679L59.9354 50.459C59.2624 49.8033 58.4563 49.3 57.5717 48.9831C56.6871 48.6663 55.7448 48.5434 54.8085 48.6227C53.5879 48.6343 52.4218 49.1302 51.5667 50.0013C51.0591 50.5011 50.694 51.1272 50.5088 51.8151C50.3237 52.5029 50.3251 53.2277 50.5131 53.9148C50.9139 55.1823 51.6181 56.3333 52.566 57.2623C52.2753 57.5331 51.9693 57.7859 51.6479 58.0206C50.886 58.9162 50.0401 59.726 49.1102 60.45C48.3789 61.0188 47.626 61.5821 46.9246 61.3681C44.6651 60.6546 42.584 59.4672 40.82 57.8852C38.0117 55.4451 35.4532 52.7315 33.1825 49.7846C32.6282 49.1796 32.2535 48.4321 32.1004 47.626C31.9473 46.8199 32.0219 45.9871 32.3158 45.221C32.6553 44.5079 33.137 43.8717 33.7313 43.3515C34.3256 42.8313 35.0199 42.438 35.7717 42.1958C37.0906 43.1708 38.5233 43.9752 40.0373 44.6008C40.9039 44.9231 41.841 44.98 42.7375 44.7633C43.3806 44.6359 43.9749 44.3301 44.4524 43.8808C44.9298 43.4316 45.2713 42.8571 45.4377 42.2229C45.8333 40.5909 45.5819 38.8691 44.7362 37.4183C44.6008 37.2017 43.9237 36.4433 43.6015 36.094C43.986 35.6769 44.4004 35.2896 44.8446 34.9321C45.9794 33.9083 47.3281 32.8277 47.8129 32.4215C47.9427 32.317 48.0372 32.1752 48.0837 32.0152L51.3771 35.6092C51.7562 36.0317 52.1625 36.4271 52.5958 36.7954C52.7568 36.8981 52.9438 36.9527 53.1348 36.9527C53.3258 36.9527 53.5127 36.8981 53.6737 36.7954C55.4287 35.7988 55.6183 34.0952 56.7775 33.2583C57.1237 33.0639 57.5059 32.9421 57.9007 32.9002C58.2956 32.8583 58.6948 32.8972 59.0742 33.0146C59.3269 33.0507 59.5698 33.1229 59.8027 33.2313C60.0464 33.3288 60.2812 33.4461 60.5069 33.5833L61.3139 34.2063L62.0181 34.9321C62.5869 35.7094 62.8306 36.679 62.6925 37.6323C62.6812 38.0601 62.5761 38.4802 62.3847 38.863C62.1933 39.2458 61.9203 39.582 61.5848 39.8477C60.9962 40.1167 60.3931 40.3515 59.7756 40.5519C59.5581 40.6495 59.3652 40.7945 59.211 40.9763C59.0568 41.1582 58.9453 41.3722 58.8846 41.6027C58.8377 42.0519 58.9324 42.5045 59.1554 42.8973L59.2637 42.9Z" fill="#18044C"/>
</svg>
