<?xml version="1.0" encoding="UTF-8"?>
<svg version="1.1" xmlns="http://www.w3.org/2000/svg" width="1161" height="327">
<path d="M0 0 C0.98408592 -0.01073296 0.98408592 -0.01073296 1.98805237 -0.02168274 C4.14883956 -0.03853615 6.30753998 -0.01917824 8.46826172 0.00219727 C9.98176239 0.00136764 11.49526297 -0.00109527 13.00875854 -0.00511169 C16.18140792 -0.00796815 19.35335086 0.00670467 22.52587891 0.03417969 C26.56403068 0.06808822 30.60090534 0.06230191 34.63911629 0.04351711 C37.76732734 0.03286585 40.89524937 0.04196071 44.02343369 0.05690193 C45.51035576 0.06203679 46.99730865 0.06165989 48.48422623 0.05535698 C61.52623758 0.02085259 71.46002624 1.85652595 81.05029297 11.14282227 C89.65426235 20.77503403 93.42731076 32.69689251 95.68310547 45.17797852 C95.99607574 46.83569527 95.99607574 46.83569527 96.31536865 48.52690125 C96.7636053 50.90523169 97.20747747 53.28438812 97.64736938 55.66427612 C98.82751415 62.03910964 100.04585747 68.40669394 101.25732422 74.77563477 C101.50784662 76.09727805 101.75827864 77.41893848 102.00862122 78.74061584 C104.40300652 91.37319364 106.85942788 103.99294995 109.3913269 116.59875488 C109.84774261 118.88033177 110.29979544 121.16278654 110.74710083 123.44616699 C114.94159183 150.48187919 114.94159183 150.48187919 128.08544922 173.69360352 C131.17174238 175.89268469 131.17174238 175.89268469 134.89794922 175.94360352 C139.14252358 174.29293571 139.54031314 172.90716778 141.38037109 168.95996094 C143.14408147 164.35820128 143.81755334 159.54267132 144.60693359 154.69750977 C145.72390585 148.62551078 147.81051623 143.0935365 152.27294922 138.63110352 C155.08544922 138.25610352 155.08544922 138.25610352 158.27294922 138.63110352 C164.18913709 143.87115563 165.23893739 152.30439897 166.71044922 159.69360352 C167.89748968 165.3183491 168.93807463 169.90669784 172.27294922 174.63110352 C175.5613111 176.3034132 175.5613111 176.3034132 179.27294922 175.63110352 C186.06456171 171.92271259 188.78243933 165.69412307 191.32763672 158.75610352 C192.96531572 152.86782827 192.80012113 146.63519472 193.08544922 140.56860352 C193.71150156 129.96365635 194.65024161 121.27378267 199.27294922 111.63110352 C200.20154807 109.55151462 201.11501099 107.46572296 202.02612305 105.37841797 C202.62586658 104.01610531 203.23676931 102.65862028 203.86157227 101.30761719 C208.63718183 90.83379095 210.33511011 79.75240753 206.52294922 68.63110352 C203.54002837 61.53380909 200.19070107 57.82724822 193.16748047 54.58813477 C183.67288165 51.44889494 175.54175146 53.95240232 166.55029297 57.43969727 C156.14907534 61.22083121 147.14169476 58.92765101 137.08544922 55.00610352 C131.9819156 53.16394405 126.6740448 53.23188295 121.29956055 53.27319336 C117.62921878 53.20355377 115.62815387 52.91400716 112.7265625 50.60302734 C109.78700951 47.04251207 108.52749538 43.82448591 107.12451172 39.47875977 C106.73203751 38.31213051 106.73203751 38.31213051 106.33163452 37.12193298 C105.78505135 35.48459543 105.24591425 33.84475528 104.71386719 32.20263672 C103.89933656 29.69786973 103.05482316 27.20469316 102.20654297 24.71118164 C101.67737529 23.11347729 101.14997105 21.51518757 100.62451172 19.91625977 C100.37255035 19.1754567 100.12058899 18.43465363 99.86099243 17.67140198 C98.48145505 13.33835569 97.74481929 10.08212217 99.27294922 5.63110352 C101.82172554 2.51579009 103.32011418 0.83000917 107.31445312 -0.0038147 C109.01480713 -0.00978165 109.01480713 -0.00978165 110.74951172 -0.01586914 C112.04276367 -0.03162994 113.33601563 -0.04739075 114.66845703 -0.06362915 C116.07829632 -0.05466389 117.48812789 -0.04440511 118.89794922 -0.03295898 C120.36507569 -0.03633486 121.83219941 -0.04119387 123.29931641 -0.04745483 C126.38291912 -0.05482713 129.46579804 -0.04413532 132.54931641 -0.02075195 C136.4371831 0.00734102 140.3233095 -0.00887564 144.21111202 -0.03796387 C177.41068982 -0.24870907 207.9117055 5.72331592 232.45654297 29.68188477 C254.69031034 52.38919854 262.91789857 80.94276643 262.69506836 112.05004883 C262.26807533 141.26251895 250.94252573 167.53726626 230.15527344 188.24291992 C226.14557274 192.05511089 221.83912654 195.3265124 217.27294922 198.44360352 C216.6379248 198.88269043 216.00290039 199.32177734 215.34863281 199.77416992 C210.9225912 202.65660141 210.9225912 202.65660141 207.98388672 202.54125977 C205.28688492 201.10655333 203.42373288 198.78188717 201.27294922 196.63110352 C195.89385396 193.2080429 190.27224717 191.99175997 183.97607422 192.99829102 C177.95719982 194.6794249 173.29845222 197.85733054 169.27294922 202.63110352 C167.52294601 205.87678421 166.52859826 209.16309821 165.89404297 212.80688477 C165.58660156 213.70987305 165.58660156 213.70987305 165.27294922 214.63110352 C162.03543244 215.71027577 159.6954315 215.74535953 156.29248047 215.72875977 C155.12910156 215.72553711 153.96572266 215.72231445 152.76708984 215.71899414 C151.55214844 215.71061523 150.33720703 215.70223633 149.08544922 215.69360352 C147.85890625 215.6890918 146.63236328 215.68458008 145.36865234 215.67993164 C142.33670254 215.66813417 139.30485016 215.65167272 136.27294922 215.63110352 C136.08684082 214.95998535 135.90073242 214.28886719 135.70898438 213.59741211 C135.4542334 212.70876465 135.19948242 211.82011719 134.93701172 210.90454102 C134.68902832 210.02717285 134.44104492 209.14980469 134.18554688 208.24584961 C132.11836509 202.3230254 128.69086879 197.9989926 123.08544922 195.13110352 C117.194557 192.90962227 111.06246716 192.46811353 105.00732422 194.32641602 C101.34000716 195.99210583 98.80247573 197.98521678 96.08544922 200.94360352 C95.15732422 201.83047852 94.22919922 202.71735352 93.27294922 203.63110352 C89.26850816 203.41796391 87.11924807 202.04123765 84.21044922 199.38110352 C83.55947266 198.79844727 82.90849609 198.21579102 82.23779297 197.61547852 C66.73696144 181.96056317 65.07916774 154.26680077 61.02612305 133.55761719 C59.46999931 125.60870511 57.87798466 117.67058757 56.19091797 109.74829102 C56.01651184 108.92920258 55.84210571 108.11011414 55.66241455 107.26620483 C54.96481618 103.99475494 54.26597134 100.72357539 53.56512451 97.45281982 C51.28984753 86.81439183 49.1541306 76.18114037 47.6394043 65.40161133 C46.84828894 60.24748212 45.6724363 56.77183214 42.27294922 52.63110352 C38.65523894 50.21929666 36.00180113 50.35174167 31.82373047 50.35766602 C30.32046802 50.33736187 28.81721288 50.31651082 27.31396484 50.29516602 C24.95525965 50.27266255 22.59684436 50.25613196 20.23803711 50.25024414 C3.44158797 50.17961889 3.44158797 50.17961889 -2.72705078 45.63110352 C-7.06541558 40.81231577 -8.1505091 35.1870339 -9.47705078 29.00610352 C-9.69022949 28.02714111 -9.9034082 27.04817871 -10.12304688 26.03955078 C-13.24972745 10.99629953 -13.24972745 10.99629953 -11.72705078 5.63110352 C-8.03598893 1.09477187 -5.81142408 0.00473061 0 0 Z " fill="#41FDFE" transform="translate(51.72705078125,49.368896484375)"/>
<path d="M0 0 C80.41585726 0 80.41585726 0 98.78515625 17.625 C112.95518247 32.81966657 117.19817236 52.76112106 117 73 C116.28422479 93.36744796 110.19317042 111.76538923 95 126 C67.29555033 147.38151221 34.6023235 140 0 140 C0 93.8 0 47.6 0 0 Z M27 23 C27 54.35 27 85.7 27 118 C55.48892371 119.04219115 55.48892371 119.04219115 79.4375 106.3125 C88.66669092 96.25824628 90.38373674 83.27957304 90.3125 70.1875 C90.30758545 69.12523193 90.3026709 68.06296387 90.29760742 66.96850586 C90.09921059 53.71864973 87.46907603 42.71814878 78.375 32.75 C64.19727176 19.27174223 45.592843 23 27 23 Z " fill="#FFFFFF" transform="translate(377,61)"/>
<path d="M0 0 C9.4918967 8.82703955 14.18228737 19.22856316 16.37109375 31.875 C16.37109375 38.475 16.37109375 45.075 16.37109375 51.875 C-7.71890625 51.875 -31.80890625 51.875 -56.62890625 51.875 C-53.6333497 65.55002544 -53.6333497 65.55002544 -44.56640625 74.8125 C-38.01641337 78.63873346 -31.0513214 78.50077739 -23.62890625 77.875 C-17.82677285 76.33668221 -13.92102511 74.01070543 -10.62890625 68.875 C-9.63890625 67.39 -9.63890625 67.39 -8.62890625 65.875 C-5.98503017 65.79029916 -3.61860822 65.87279217 -1.00390625 66.125 C-0.28203125 66.18292725 0.43984375 66.24085449 1.18359375 66.30053711 C5.92945661 66.69513333 10.65828204 67.18771496 15.37109375 67.875 C15.00654104 76.25971238 10.69073397 83.03645566 4.62109375 88.6875 C-7.51476529 98.50735541 -22.25880984 100.61195069 -37.42578125 99.62890625 C-51.91625891 97.84132549 -62.6883297 92.33747774 -72.06640625 81.02734375 C-82.63196621 66.4732849 -83.58005339 47.95736736 -81.3359375 30.61035156 C-78.98996905 17.83995878 -71.93439029 5.7068041 -61.28125 -1.7734375 C-43.03034619 -13.33892523 -17.28792562 -13.97419248 0 0 Z M-49.94140625 18.25 C-53.91811046 23.31813662 -55.55585976 27.43672103 -56.62890625 33.875 C-40.45890625 33.875 -24.28890625 33.875 -7.62890625 33.875 C-9.57984429 25.09577883 -10.99043095 19.29680841 -18.25390625 13.9375 C-28.58978855 7.62112748 -41.86354875 9.38597632 -49.94140625 18.25 Z " fill="#FFFFFF" transform="translate(866.62890625,104.125)"/>
<path d="M0 0 C9.4918967 8.82703955 14.18228737 19.22856316 16.37109375 31.875 C16.37109375 38.475 16.37109375 45.075 16.37109375 51.875 C-7.71890625 51.875 -31.80890625 51.875 -56.62890625 51.875 C-53.6333497 65.55002544 -53.6333497 65.55002544 -44.56640625 74.8125 C-38.01641337 78.63873346 -31.0513214 78.50077739 -23.62890625 77.875 C-17.82677285 76.33668221 -13.92102511 74.01070543 -10.62890625 68.875 C-9.63890625 67.39 -9.63890625 67.39 -8.62890625 65.875 C-5.98503017 65.79029916 -3.61860822 65.87279217 -1.00390625 66.125 C-0.28203125 66.18292725 0.43984375 66.24085449 1.18359375 66.30053711 C5.92945661 66.69513333 10.65828204 67.18771496 15.37109375 67.875 C15.00654104 76.25971238 10.69073397 83.03645566 4.62109375 88.6875 C-7.51476529 98.50735541 -22.25880984 100.61195069 -37.42578125 99.62890625 C-51.91625891 97.84132549 -62.6883297 92.33747774 -72.06640625 81.02734375 C-82.63196621 66.4732849 -83.58005339 47.95736736 -81.3359375 30.61035156 C-78.98996905 17.83995878 -71.93439029 5.7068041 -61.28125 -1.7734375 C-43.03034619 -13.33892523 -17.28792562 -13.97419248 0 0 Z M-49.94140625 18.25 C-53.91811046 23.31813662 -55.55585976 27.43672103 -56.62890625 33.875 C-40.45890625 33.875 -24.28890625 33.875 -7.62890625 33.875 C-9.57984429 25.09577883 -10.99043095 19.29680841 -18.25390625 13.9375 C-28.58978855 7.62112748 -41.86354875 9.38597632 -49.94140625 18.25 Z " fill="#FFFFFF" transform="translate(585.62890625,104.125)"/>
<path d="M0 0 C6.42224455 5.85557591 9.35484775 12.76311828 10.75 21.25 C10.837079 23.77467235 10.87662505 26.2703593 10.86352539 28.79418945 C10.86367142 29.53619095 10.86381744 30.27819244 10.8639679 31.04267883 C10.86327404 33.4829099 10.8555064 35.9230636 10.84765625 38.36328125 C10.8457902 40.06007343 10.84436718 41.75686615 10.84336853 43.45365906 C10.8395581 47.9104665 10.82974043 52.36724113 10.81866455 56.82403564 C10.8084187 61.37552446 10.80386412 65.92701859 10.79882812 70.47851562 C10.78811681 79.40236045 10.77053197 88.32617236 10.75 97.25 C2.5 97.25 -5.75 97.25 -14.25 97.25 C-14.58 93.62 -14.91 89.99 -15.25 86.25 C-15.91 87.136875 -16.57 88.02375 -17.25 88.9375 C-23.41090196 96.32011057 -31.89754736 99.2825049 -41.25 100.25 C-52.31273486 100.80313674 -63.820479 99.01356308 -72.32421875 91.390625 C-79.32683521 83.81546757 -81.56965613 75.76472082 -81.3984375 65.54296875 C-80.87203545 57.41144239 -77.79972138 50.70378297 -71.9375 45 C-59.06179903 36.61582263 -44.01784671 34.93484764 -29.00561523 33.37670898 C-22.11974687 32.6942214 -22.11974687 32.6942214 -16.25 29.25 C-15.456336 23.991976 -16.70802103 20.80437899 -19.25 16.25 C-19.25 15.59 -19.25 14.93 -19.25 14.25 C-27.48361875 10.97991028 -34.08902805 9.88108636 -42.5625 12.9375 C-46.57952404 14.69378028 -48.90829416 16.44472801 -51.25 20.25 C-51.91 21.24 -52.57 22.23 -53.25 23.25 C-60.54459269 23.95140314 -70.67835032 23.53582484 -77.25 20.25 C-76.81932918 14.50772234 -74.45083698 10.84582862 -71.25 6.25 C-70.38375 4.950625 -70.38375 4.950625 -69.5 3.625 C-52.68937495 -14.11954867 -18.85463522 -14.66471629 0 0 Z M-21.8125 49.5625 C-25.65923085 50.47334486 -29.48846565 51.31446905 -33.390625 51.94140625 C-42.11180041 53.35182521 -49.13878968 54.76504329 -55.3125 61.5 C-56.70928999 65.59725065 -56.48824682 69.11500608 -55.25 73.25 C-52.64484442 76.55925169 -50.15515049 78.72131716 -46.25 80.25 C-38.26263077 81.04137529 -29.78450512 81.55831533 -23.25 76.25 C-18.25862022 71.51660165 -15.39901542 67.29289479 -15.0546875 60.26171875 C-15.06785222 58.82018208 -15.09151349 57.37870781 -15.125 55.9375 C-15.13402344 55.19693359 -15.14304687 54.45636719 -15.15234375 53.69335938 C-15.17575787 51.87876533 -15.21162385 50.06433929 -15.25 48.25 C-17.43738503 48.25 -19.70698363 49.05872614 -21.8125 49.5625 Z " fill="#FFFFFF" transform="translate(1069.25,103.75)"/>
<path d="M0 0 C7.80055103 6.133147 12.43079126 14.19208638 14 24 C14.0871806 26.55514043 14.12660674 29.08166112 14.11352539 31.63598633 C14.11367142 32.38774139 14.11381744 33.13949646 14.1139679 33.91403198 C14.11327395 36.38672826 14.1055059 38.85934821 14.09765625 41.33203125 C14.09579023 43.05124368 14.09436719 44.77045665 14.09336853 46.4896698 C14.08955786 51.00566079 14.07973997 55.52161942 14.06866455 60.03759766 C14.05841924 64.64940961 14.05386423 69.26122681 14.04882812 73.87304688 C14.03811638 82.91538106 14.02053134 91.95768277 14 101 C5.75 101 -2.5 101 -11 101 C-11.029729 98.22372192 -11.029729 98.22372192 -11.06005859 95.39135742 C-11.12817042 89.23659214 -11.20496916 83.08198173 -11.28752708 76.92739391 C-11.33720974 73.20041217 -11.38353906 69.47345499 -11.421875 65.74633789 C-11.45908596 62.1411264 -11.50553602 58.5361358 -11.55806351 54.9311161 C-11.57641934 53.56424191 -11.59159453 52.19732071 -11.60334396 50.83037376 C-11.29389487 36.0530506 -11.29389487 36.0530506 -17 23 C-17 22.34 -17 21.68 -17 21 C-18.65984798 20.31653318 -20.32836805 19.65411685 -22 19 C-22.94875 18.62875 -23.8975 18.2575 -24.875 17.875 C-32.34861283 15.78238841 -38.30704862 17.431206 -45 21 C-49.7062614 25.34424129 -51.72975387 31.0312672 -52.3008728 37.30517578 C-52.44263333 41.35145359 -52.49441599 45.38922628 -52.51171875 49.4375 C-52.5285875 50.92823749 -52.54674066 52.41896095 -52.56611633 53.90966797 C-52.61338459 57.80905775 -52.64334302 61.70839062 -52.66955566 65.60797119 C-52.69947901 69.59683467 -52.74596851 73.58550247 -52.79101562 77.57421875 C-52.87678477 85.38273159 -52.9427128 93.19121674 -53 101 C-61.58 101 -70.16 101 -79 101 C-79 66.35 -79 31.7 -79 -4 C-70.75 -4 -62.5 -4 -54 -4 C-53.505 2.93 -53.505 2.93 -53 10 C-51.68 8.4325 -50.36 6.865 -49 5.25 C-36.81666707 -8.22781205 -15.19124895 -10.05744743 0 0 Z " fill="#FFFFFF" transform="translate(694,100)"/>
<path d="M0 0 C9.24 0 18.48 0 28 0 C30.000625 3.7125 32.00125 7.425 34.0625 11.25 C38.56793623 19.58898944 43.13221879 27.86634487 48 36 C48.32162109 35.43716309 48.64324219 34.87432617 48.97460938 34.29443359 C49.42642578 33.50375488 49.87824219 32.71307617 50.34375 31.8984375 C50.84479248 31.02155273 51.34583496 30.14466797 51.86206055 29.24121094 C52.95706521 27.32507519 54.05228123 25.40906021 55.14770508 23.49316406 C57.61765478 19.17266719 60.08638976 14.85155358 62.54296875 10.5234375 C62.91035156 9.87713379 63.27773438 9.23083008 63.65625 8.56494141 C64.62999561 6.85120446 65.60215706 5.13656766 66.57421875 3.421875 C68 1 68 1 69 0 C70.99964982 -0.08758003 73.0023611 -0.10696576 75.00390625 -0.09765625 C76.21884766 -0.09443359 77.43378906 -0.09121094 78.68554688 -0.08789062 C79.96494141 -0.07951172 81.24433594 -0.07113281 82.5625 -0.0625 C83.84576172 -0.05798828 85.12902344 -0.05347656 86.45117188 -0.04882812 C89.63416022 -0.03699545 92.81705762 -0.02051068 96 0 C94.45139163 4.27624211 92.29941356 8.07810445 89.96484375 11.9609375 C89.36851891 12.96237289 89.36851891 12.96237289 88.76014709 13.98403931 C87.48929098 16.11638527 86.21347551 18.24571436 84.9375 20.375 C84.10709618 21.76673281 83.27701532 23.15865836 82.44726562 24.55078125 C82.0371524 25.23771057 81.62703918 25.92463989 81.20449829 26.63238525 C80.37898068 28.01654627 79.55522458 29.40175941 78.73324585 30.7880249 C76.64455488 34.29974542 74.51615871 37.77426483 72.30126953 41.20800781 C71.8733461 41.88384918 71.44542267 42.55969055 71.00453186 43.25601196 C70.19094974 44.53793412 69.36300411 45.81088985 68.51878357 47.07284546 C67.25465423 48.99424026 67.25465423 48.99424026 66 52 C66.47521964 54.70904534 66.47521964 54.70904534 68 57 C68.39541992 57.70302246 68.79083984 58.40604492 69.19824219 59.13037109 C69.64329102 59.83758301 70.08833984 60.54479492 70.546875 61.2734375 C71.05565186 62.08756104 71.56442871 62.90168457 72.08862305 63.74047852 C72.63687744 64.60987061 73.18513184 65.4792627 73.75 66.375 C74.91873864 68.24561295 76.08667736 70.11672587 77.25390625 71.98828125 C77.86379395 72.96490723 78.47368164 73.9415332 79.10205078 74.94775391 C82.32719688 80.13437295 85.50947502 85.34691745 88.6875 90.5625 C89.28723633 91.54331543 89.88697266 92.52413086 90.50488281 93.53466797 C91.3435791 94.91162842 91.3435791 94.91162842 92.19921875 96.31640625 C92.69252686 97.12537354 93.18583496 97.93434082 93.6940918 98.76782227 C94.88883489 100.80998644 95.97098465 102.87040417 97 105 C87.7968509 106.84102049 77.96502614 108.41589658 69 105 C61.42444807 98.83897147 57.35627403 88.0768947 53.5703125 79.34326172 C51.96585058 75.92729444 50.16420966 73.07826033 48 70 C47.64808594 70.5983667 47.29617188 71.1967334 46.93359375 71.81323242 C46.43988281 72.65217041 45.94617188 73.4911084 45.4375 74.35546875 C44.89343506 75.28278809 44.34937012 76.21010742 43.78881836 77.16552734 C42.58986666 79.19099809 41.37693631 81.20825517 40.15063477 83.21728516 C36.27150026 89.55472293 36.27150026 89.55472293 33.33984375 96.35546875 C31.75125193 100.34243596 30.25440168 102.22161698 27 105 C23.82055664 105.70678711 23.82055664 105.70678711 20.28515625 105.77734375 C19.02002197 105.80650879 17.7548877 105.83567383 16.45141602 105.86572266 C10.61533879 105.78711501 4.81544442 105.49101224 -1 105 C3.81492895 96.41611262 8.8141136 87.96609074 13.9375 79.5625 C14.53618896 78.56959961 15.13487793 77.57669922 15.75170898 76.55371094 C18.42442555 72.1351685 21.11500327 67.76959043 24.078125 63.5390625 C24.52422119 62.8783374 24.97031738 62.2176123 25.42993164 61.53686523 C26.59616355 59.8218183 27.80238766 58.13415233 29.01171875 56.44921875 C30.14192432 52.5046673 29.86837654 51.88797179 28.15625 48.3359375 C27.13230272 46.5409466 26.07799396 44.7630625 25 43 C24.44868408 42.05326416 23.89736816 41.10652832 23.3293457 40.13110352 C21.52052249 37.0474858 19.6714046 33.99116147 17.8125 30.9375 C16.48385806 28.73859352 15.15573529 26.53937326 13.828125 24.33984375 C12.85649414 22.73278564 12.85649414 22.73278564 11.86523438 21.09326172 C9.24154589 16.74219718 6.6441452 12.37611591 4.0625 8 C3.43468628 6.94220337 3.43468628 6.94220337 2.79418945 5.86303711 C0 1.11862974 0 1.11862974 0 0 Z " fill="#43FDFE" transform="translate(887,96)"/>
<path d="M0 0 C8.58 0 17.16 0 26 0 C26 8.25 26 16.5 26 25 C32.93 25 39.86 25 47 25 C47 31.6 47 38.2 47 45 C40.07 45 33.14 45 26 45 C26.06298858 52.47615281 26.13845773 59.95193086 26.23571491 67.42772198 C26.28038373 70.89930066 26.31964707 74.37076294 26.34643555 77.8425293 C26.37749455 81.8367256 26.43228188 85.83029368 26.48828125 89.82421875 C26.49467117 91.06709152 26.5010611 92.30996429 26.50764465 93.59049988 C26.52743881 94.75132584 26.54723297 95.91215179 26.56762695 97.1081543 C26.58428154 98.63704536 26.58428154 98.63704536 26.60127258 100.19682312 C27.0673594 103.47355739 28.00965275 105.36982839 30 108 C33.14930893 109.04976964 35.38814456 109.10131595 38.6875 109.0625 C39.68136719 109.05347656 40.67523437 109.04445313 41.69921875 109.03515625 C42.45847656 109.02355469 43.21773437 109.01195312 44 109 C46.46293372 115.86102966 48.37634405 122.66129099 48 130 C37.40636189 133.45914714 25.2853017 133.49376647 15 129 C7.77457826 125.10938829 3.03314801 119.58228192 0.58895874 111.78884888 C-0.63961962 105.97126074 -0.36205317 100.03883571 -0.29296875 94.12109375 C-0.28736236 92.69906566 -0.2830972 91.27703172 -0.28010559 89.85499573 C-0.26873869 86.14117992 -0.23934372 82.42772506 -0.20599365 78.71405029 C-0.17511511 74.91293213 -0.16156255 71.11175474 -0.14648438 67.31054688 C-0.11446445 59.87351556 -0.06176527 52.43685467 0 45 C-4.95 45 -9.9 45 -15 45 C-15 38.4 -15 31.8 -15 25 C-10.05 25 -5.1 25 0 25 C0 16.75 0 8.5 0 0 Z " fill="#FFFFFF" transform="translate(732,71)"/>
<path d="M0 0 C1.12591553 0.00523682 2.25183105 0.01047363 3.41186523 0.01586914 C4.62680664 0.0190918 5.84174805 0.02231445 7.09350586 0.02563477 C8.37290039 0.03401367 9.65229492 0.04239258 10.97045898 0.05102539 C12.2537207 0.05553711 13.53698242 0.06004883 14.85913086 0.06469727 C18.04211921 0.07652994 21.22501661 0.09301471 24.40795898 0.11352539 C22.85935062 4.3897675 20.70737255 8.19162985 18.37280273 12.07446289 C17.77647789 13.07589828 17.77647789 13.07589828 17.16810608 14.0975647 C15.89724997 16.22991066 14.62143449 18.35923975 13.34545898 20.48852539 C12.51505517 21.8802582 11.68497431 23.27218375 10.85522461 24.66430664 C10.44511139 25.35123596 10.03499817 26.03816528 9.61245728 26.74591064 C8.78693966 28.13007166 7.96318357 29.5152848 7.14120483 30.90155029 C5.05251386 34.41327081 2.9241177 37.88779022 0.70922852 41.3215332 C0.28130508 41.99737457 -0.14661835 42.67321594 -0.58750916 43.36953735 C-1.40109127 44.65145951 -2.22903691 45.92441524 -3.07325745 47.18637085 C-4.33738679 49.10776565 -4.33738679 49.10776565 -5.59204102 52.11352539 C-5.11682137 54.82257073 -5.11682137 54.82257073 -3.59204102 57.11352539 C-3.19662109 57.81654785 -2.80120117 58.51957031 -2.39379883 59.24389648 C-1.94875 59.9511084 -1.50370117 60.65832031 -1.04516602 61.38696289 C-0.53638916 62.20108643 -0.0276123 63.01520996 0.49658203 63.85400391 C1.04483643 64.723396 1.59309082 65.59278809 2.15795898 66.48852539 C3.32669763 68.35913834 4.49463635 70.23025126 5.66186523 72.10180664 C6.27175293 73.07843262 6.88164063 74.05505859 7.51000977 75.0612793 C10.73515586 80.24789835 13.91743401 85.46044284 17.09545898 90.67602539 C17.99506348 92.14724854 17.99506348 92.14724854 18.9128418 93.64819336 C19.75153809 95.02515381 19.75153809 95.02515381 20.60717773 96.42993164 C21.10048584 97.23889893 21.59379395 98.04786621 22.10205078 98.88134766 C23.29679388 100.92351183 24.37894364 102.98392956 25.40795898 105.11352539 C16.20480988 106.95454588 6.37298512 108.52942197 -2.59204102 105.11352539 C-10.16759295 98.95249686 -14.23576699 88.19042009 -18.02172852 79.45678711 C-19.62619044 76.04081983 -21.42783136 73.19178572 -23.59204102 70.11352539 C-24.58204102 70.60852539 -24.58204102 70.60852539 -25.59204102 71.11352539 C-24.26006329 67.41285822 -22.55037734 64.55835718 -20.27954102 61.36352539 C-18.07210766 57.80066608 -18.07210766 57.80066608 -17.72875977 53.74633789 C-18.49886679 51.39119576 -19.43876461 49.30593139 -20.59204102 47.11352539 C-20.95942383 46.36458008 -21.32680664 45.61563477 -21.70532227 44.84399414 C-22.65492454 42.9275241 -23.6221722 41.01981928 -24.59204102 39.11352539 C-24.59204102 38.45352539 -24.59204102 37.79352539 -24.59204102 37.11352539 C-25.25204102 37.11352539 -25.91204102 37.11352539 -26.59204102 37.11352539 C-26.26204102 35.79352539 -25.93204102 34.47352539 -25.59204102 33.11352539 C-24.93204102 34.10352539 -24.27204102 35.09352539 -23.59204102 36.11352539 C-23.27041992 35.55068848 -22.94879883 34.98785156 -22.61743164 34.40795898 C-21.93970703 33.22194092 -21.93970703 33.22194092 -21.24829102 32.01196289 C-20.74724854 31.13507813 -20.24620605 30.25819336 -19.72998047 29.35473633 C-18.63497581 27.43860058 -17.53975978 25.5225856 -16.44433594 23.60668945 C-13.97438623 19.28619258 -11.50565125 14.96507897 -9.04907227 10.63696289 C-8.49799805 9.66750732 -8.49799805 9.66750732 -7.93579102 8.6784668 C-6.9620454 6.96472985 -5.98988395 5.25009305 -5.01782227 3.53540039 C-3.01421677 0.13201571 -3.01421677 0.13201571 0 0 Z " fill="#FEFEFE" transform="translate(958.592041015625,95.886474609375)"/>
<path d="M0 0 C5.36787898 1.88869816 8.45991584 4.91983169 11 10 C11.52113171 15.22840334 11.64273534 19.64036754 9.375 24.4375 C5.88949319 28.1981784 3.41498657 30.67490565 -1.84375 31.3828125 C-6.69958871 31.56310354 -10.13203986 31.41113902 -14.5625 29.3125 C-18.73621348 25.35282311 -20.54091604 21.95482971 -21.05859375 16.1171875 C-20.93448251 11.63263487 -19.6078457 7.72757889 -16.53125 4.421875 C-11.06093779 -0.24397953 -6.98450939 -0.59099695 0 0 Z " fill="#41FDFE" transform="translate(245,249)"/>
<path d="M0 0 C4.95375266 4.3640202 7.27104896 7.40814569 7.72265625 14.0390625 C7.5035121 19.14073841 5.37854975 22.46705394 2.0625 26.1875 C-2.27205364 29.96634164 -5.78414575 29.65020058 -11.390625 29.58984375 C-16.78939506 29.08812559 -19.24782559 26.55832434 -22.75 22.6875 C-25.20698109 17.58453927 -25.45486555 12.67989138 -23.71484375 7.25390625 C-21.82777852 3.45526844 -19.23223156 0.85972148 -15.43359375 -1.02734375 C-9.98933113 -2.77322683 -5.08649678 -2.54324839 0 0 Z " fill="#41FDFE" transform="translate(173.375,250.6875)"/>
<path d="M0 0 C1.65 0 3.3 0 5 0 C5.98928125 3.33041464 6.96454291 6.66478326 7.9375 10 C8.21529297 10.93457031 8.49308594 11.86914062 8.77929688 12.83203125 C10.34880008 18.24019891 11.47745625 23.39092274 12 29 C12.66 29 13.32 29 14 29 C14.15275391 27.3603125 14.15275391 27.3603125 14.30859375 25.6875 C14.98272329 20.29446369 16.51742122 15.19806087 18.0625 10 C18.34416016 9.03449219 18.62582031 8.06898438 18.91601562 7.07421875 C19.60524279 4.71449184 20.30000011 2.35654915 21 0 C22.98 0 24.96 0 27 0 C27.20681396 0.77714355 27.41362793 1.55428711 27.62670898 2.35498047 C28.5614044 5.86225373 29.49940926 9.36863343 30.4375 12.875 C30.92573242 14.70998047 30.92573242 14.70998047 31.42382812 16.58203125 C31.89272461 18.33193359 31.89272461 18.33193359 32.37109375 20.1171875 C32.65911865 21.19597168 32.94714355 22.27475586 33.24389648 23.38623047 C33.9007547 25.95238702 33.9007547 25.95238702 35 28 C35.20681396 27.18732666 35.41362793 26.37465332 35.62670898 25.53735352 C36.39363106 22.53061409 37.16364615 19.52468916 37.93579102 16.51928711 C38.26972267 15.21687242 38.60240932 13.91413788 38.93383789 12.61108398 C39.40966781 10.74119333 39.8903076 8.8725287 40.37109375 7.00390625 C40.65911865 5.87799072 40.94714355 4.7520752 41.24389648 3.59204102 C42 1 42 1 43 0 C44.66617115 -0.04063832 46.33388095 -0.042721 48 0 C46.64185178 8.77581418 44.37288882 17.17437715 41.875 25.6875 C41.49819847 26.98618332 41.12189333 28.28501077 40.74609375 29.58398438 C39.83557647 32.72410165 38.92012494 35.86268726 38 39 C36.02 39 34.04 39 32 39 C31.22649921 36.56331964 30.45618294 34.12570063 29.6875 31.6875 C29.47416016 31.01654297 29.26082031 30.34558594 29.04101562 29.65429688 C27.2030728 23.81128461 25.58219618 17.91690489 24 12 C23.68977905 13.12027588 23.68977905 13.12027588 23.37329102 14.26318359 C22.43848067 17.63438113 21.50053089 21.00469722 20.5625 24.375 C20.23701172 25.550625 19.91152344 26.72625 19.57617188 27.9375 C19.26357422 29.05898438 18.95097656 30.18046875 18.62890625 31.3359375 C18.34088135 32.37282715 18.05285645 33.4097168 17.75610352 34.47802734 C17 37 17 37 16 39 C14.02 39 12.04 39 10 39 C8.89417051 35.22965234 7.79065053 31.45863228 6.6875 27.6875 C6.37876953 26.63498047 6.07003906 25.58246094 5.75195312 24.49804688 C4.82712156 21.33414942 3.91121667 18.16784401 3 15 C2.70303223 13.97471191 2.40606445 12.94942383 2.10009766 11.89306641 C1.68896729 10.439729 1.68896729 10.439729 1.26953125 8.95703125 C1.02436768 8.09698486 0.7792041 7.23693848 0.52661133 6.35083008 C0 4 0 4 0 0 Z " fill="#41FDFE" transform="translate(374,230)"/>
<path d="M0 0 C2.66666667 0 5.33333333 0 8 0 C8.69996094 -0.02320313 9.39992188 -0.04640625 10.12109375 -0.0703125 C10.88550781 -0.08835938 11.64992188 -0.10640625 12.4375 -0.125 C13.19933594 -0.14820313 13.96117187 -0.17140625 14.74609375 -0.1953125 C17.25237485 0.02186957 18.8382206 0.74922103 21 2 C21.99 1.34 22.98 0.68 24 0 C26.0859375 -0.37109375 26.0859375 -0.37109375 28.375 -0.4375 C29.12523437 -0.47746094 29.87546875 -0.51742187 30.6484375 -0.55859375 C34.5191701 0.36086599 35.73928587 1.71384812 38 5 C38.61108157 9.12139732 38.47033273 13.15785684 38.3125 17.3125 C38.28994141 18.43462891 38.26738281 19.55675781 38.24414062 20.71289062 C38.18533776 23.47662536 38.10320401 26.23762554 38 29 C36.35 29 34.7 29 33 29 C32.98541748 28.37955811 32.97083496 27.75911621 32.95581055 27.11987305 C32.88133412 24.30845367 32.78467436 21.49822251 32.6875 18.6875 C32.65366211 17.22280273 32.65366211 17.22280273 32.61914062 15.72851562 C32.58369141 14.79072266 32.54824219 13.85292969 32.51171875 12.88671875 C32.48553467 12.02264404 32.45935059 11.15856934 32.43237305 10.26831055 C31.91616565 7.56018918 31.20845586 6.61503063 29 5 C26.40110217 4.91975342 26.40110217 4.91975342 24 6 C22.18841829 8.85361419 21.72154394 11.20191623 21.5859375 14.546875 C21.54726563 15.39121094 21.50859375 16.23554688 21.46875 17.10546875 C21.42234375 18.41451172 21.42234375 18.41451172 21.375 19.75 C21.33632813 20.63816406 21.29765625 21.52632813 21.2578125 22.44140625 C21.16379127 24.6273998 21.07813857 26.81339062 21 29 C19.35 29 17.7 29 16 29 C15.67 21.74 15.34 14.48 15 7 C12.525 6.01 12.525 6.01 10 5 C7.61424079 5.94091828 7.61424079 5.94091828 6 8 C5.36138512 10.30399085 5.36138512 10.30399085 5.390625 12.88671875 C5.35839844 13.82451172 5.32617188 14.76230469 5.29296875 15.72851562 C5.27169922 17.19321289 5.27169922 17.19321289 5.25 18.6875 C5.22035156 19.67556641 5.19070313 20.66363281 5.16015625 21.68164062 C5.08944508 24.12117596 5.03675735 26.55975525 5 29 C3.35 29 1.7 29 0 29 C0 19.43 0 9.86 0 0 Z " fill="#41FDFE" transform="translate(767,240)"/>
<path d="M0 0 C1.65 0 3.3 0 5 0 C5.33 0.66 5.66 1.32 6 2 C6.66 1.34 7.32 0.68 8 0 C12.02000928 -0.68687209 16.18146433 -0.8612171 19.921875 0.91015625 C23.56453898 3.7142862 25.11409989 6.57049943 26 11 C26.51048423 16.51322973 25.75990204 21.19881192 23 26 C19.71783928 29.05317277 17.21978046 30.22917087 12.8125 30.375 C9 30 9 30 6 28 C5.67 31.96 5.34 35.92 5 40 C3.35 40 1.7 40 0 40 C0 26.8 0 13.6 0 0 Z M7 6 C4.25117511 10.43137963 4.35458295 14.94287145 5 20 C6.33016164 23.22838773 6.33016164 23.22838773 9 25 C12.5 25.83333333 12.5 25.83333333 16 25 C18.75709824 22.53312262 19.80216627 20.6500251 20.875 17.125 C21.02968011 13.25799718 20.484985 10.57746385 19 7 C14.80407314 3.66477609 11.57944897 3.0455168 7 6 Z " fill="#41FDFE" transform="translate(1012,240)"/>
<path d="M0 0 C1.65 0 3.3 0 5 0 C5.33 0.66 5.66 1.32 6 2 C6.66 1.34 7.32 0.68 8 0 C12.02000928 -0.68687209 16.18146433 -0.8612171 19.921875 0.91015625 C23.56453898 3.7142862 25.11409989 6.57049943 26 11 C26.51048423 16.51322973 25.75990204 21.19881192 23 26 C19.71783928 29.05317277 17.21978046 30.22917087 12.8125 30.375 C9 30 9 30 6 28 C5.67 31.96 5.34 35.92 5 40 C3.35 40 1.7 40 0 40 C0 26.8 0 13.6 0 0 Z M7 6 C4.25117511 10.43137963 4.35458295 14.94287145 5 20 C6.33016164 23.22838773 6.33016164 23.22838773 9 25 C12.5 25.83333333 12.5 25.83333333 16 25 C18.75709824 22.53312262 19.80216627 20.6500251 20.875 17.125 C21.02968011 13.25799718 20.484985 10.57746385 19 7 C14.80407314 3.66477609 11.57944897 3.0455168 7 6 Z " fill="#41FDFE" transform="translate(982,240)"/>
<path d="M0 0 C1.65 0 3.3 0 5 0 C5 12.87 5 25.74 5 39 C2.66666667 39 0.33333333 39 -2 39 C-2.99 39.495 -2.99 39.495 -4 40 C-8.58672936 40.38222745 -11.09959355 40.40773122 -15.3125 38.5 C-19.67968652 34.43750091 -20.7611644 30.2689382 -21.375 24.4375 C-20.80963257 19.25496522 -19.3098328 15.54798422 -15.9375 11.5625 C-11.74663063 9.33331416 -7.66601577 9.28977459 -3 10 C-2.34 10.66 -1.68 11.32 -1 12 C-0.67 8.04 -0.34 4.08 0 0 Z M-14 17 C-15.61118216 20.6197411 -16.42743317 24.16962084 -15.515625 28.07421875 C-14.37877802 30.84093309 -13.11598108 32.88401892 -11 35 C-6.93936239 35.52637895 -4.86100169 35.66230899 -1.5625 33.125 C0.61341024 28.77317951 0.66942209 24.78714632 0 20 C-1.05530723 17.39142673 -1.5579047 16.28522278 -3.9375 14.75 C-8.17040304 13.21076253 -10.67410767 14.18578341 -14 17 Z " fill="#41FDFE" transform="translate(563,230)"/>
<path d="M0 0 C4.03558263 2.30604722 4.8900156 3.7800312 7 8 C7 10.97 7 13.94 7 17 C0.4 17 -6.2 17 -13 17 C-11.52360997 22.06008639 -11.52360997 22.06008639 -8 24 C-3.65147362 24.46459149 -3.65147362 24.46459149 0.0625 22.4375 C2 21 2 21 4.75 21.3125 C5.4925 21.539375 6.235 21.76625 7 22 C6.07349738 25.42805969 5.33885367 26.76602961 2.375 28.8125 C-2.95764168 30.68879985 -6.9866278 30.72177494 -12.3125 28.8125 C-16.08234 26.27004977 -17.51279883 24.1905169 -18.50390625 19.734375 C-19.36019405 13.85753665 -19.03237436 9.18130107 -16 4 C-11.84287218 -1.19640977 -6.16886155 -0.92764835 0 0 Z M-12 7 C-12.33 8.65 -12.66 10.3 -13 12 C-8.05 12 -3.1 12 2 12 C1.57792574 7.02730863 1.57792574 7.02730863 -1.375 5.1875 C-5.85896874 3.15903795 -8.21470208 4.11122001 -12 7 Z " fill="#41FDFE" transform="translate(858,240)"/>
<path d="M0 0 C4.03558263 2.30604722 4.8900156 3.7800312 7 8 C7 10.97 7 13.94 7 17 C0.4 17 -6.2 17 -13 17 C-11.52360997 22.06008639 -11.52360997 22.06008639 -8 24 C-3.65147362 24.46459149 -3.65147362 24.46459149 0.0625 22.4375 C2 21 2 21 4.75 21.3125 C5.4925 21.539375 6.235 21.76625 7 22 C6.07349738 25.42805969 5.33885367 26.76602961 2.375 28.8125 C-2.95764168 30.68879985 -6.9866278 30.72177494 -12.3125 28.8125 C-16.08234 26.27004977 -17.51279883 24.1905169 -18.50390625 19.734375 C-19.36019405 13.85753665 -19.03237436 9.18130107 -16 4 C-11.84287218 -1.19640977 -6.16886155 -0.92764835 0 0 Z M-12 7 C-12.33 8.65 -12.66 10.3 -13 12 C-8.05 12 -3.1 12 2 12 C1.57792574 7.02730863 1.57792574 7.02730863 -1.375 5.1875 C-5.85896874 3.15903795 -8.21470208 4.11122001 -12 7 Z " fill="#41FDFE" transform="translate(828,240)"/>
<path d="M0 0 C4.03558263 2.30604722 4.8900156 3.7800312 7 8 C7 10.97 7 13.94 7 17 C0.4 17 -6.2 17 -13 17 C-11.52360997 22.06008639 -11.52360997 22.06008639 -8 24 C-3.65147362 24.46459149 -3.65147362 24.46459149 0.0625 22.4375 C2 21 2 21 4.75 21.3125 C5.4925 21.539375 6.235 21.76625 7 22 C6.07349738 25.42805969 5.33885367 26.76602961 2.375 28.8125 C-2.95764168 30.68879985 -6.9866278 30.72177494 -12.3125 28.8125 C-16.08234 26.27004977 -17.51279883 24.1905169 -18.50390625 19.734375 C-19.36019405 13.85753665 -19.03237436 9.18130107 -16 4 C-11.84287218 -1.19640977 -6.16886155 -0.92764835 0 0 Z M-12 7 C-12.33 8.65 -12.66 10.3 -13 12 C-8.05 12 -3.1 12 2 12 C1.57792574 7.02730863 1.57792574 7.02730863 -1.375 5.1875 C-5.85896874 3.15903795 -8.21470208 4.11122001 -12 7 Z " fill="#41FDFE" transform="translate(592,240)"/>
<path d="M0 0 C4.03558263 2.30604722 4.8900156 3.7800312 7 8 C7 10.97 7 13.94 7 17 C0.4 17 -6.2 17 -13 17 C-11.52360997 22.06008639 -11.52360997 22.06008639 -8 24 C-3.65147362 24.46459149 -3.65147362 24.46459149 0.0625 22.4375 C2 21 2 21 4.75 21.3125 C5.4925 21.539375 6.235 21.76625 7 22 C6.07349738 25.42805969 5.33885367 26.76602961 2.375 28.8125 C-2.95764168 30.68879985 -6.9866278 30.72177494 -12.3125 28.8125 C-16.08234 26.27004977 -17.51279883 24.1905169 -18.50390625 19.734375 C-19.36019405 13.85753665 -19.03237436 9.18130107 -16 4 C-11.84287218 -1.19640977 -6.16886155 -0.92764835 0 0 Z M-12 7 C-12.33 8.65 -12.66 10.3 -13 12 C-8.05 12 -3.1 12 2 12 C1.57792574 7.02730863 1.57792574 7.02730863 -1.375 5.1875 C-5.85896874 3.15903795 -8.21470208 4.11122001 -12 7 Z " fill="#41FDFE" transform="translate(518,240)"/>
<path d="M0 0 C4.03558263 2.30604722 4.8900156 3.7800312 7 8 C7 10.97 7 13.94 7 17 C0.4 17 -6.2 17 -13 17 C-11.52360997 22.06008639 -11.52360997 22.06008639 -8 24 C-3.65147362 24.46459149 -3.65147362 24.46459149 0.0625 22.4375 C2 21 2 21 4.75 21.3125 C5.4925 21.539375 6.235 21.76625 7 22 C6.07349738 25.42805969 5.33885367 26.76602961 2.375 28.8125 C-2.95764168 30.68879985 -6.9866278 30.72177494 -12.3125 28.8125 C-16.08234 26.27004977 -17.51279883 24.1905169 -18.50390625 19.734375 C-19.36019405 13.85753665 -19.03237436 9.18130107 -16 4 C-11.84287218 -1.19640977 -6.16886155 -0.92764835 0 0 Z M-12 7 C-12.33 8.65 -12.66 10.3 -13 12 C-8.05 12 -3.1 12 2 12 C1.57792574 7.02730863 1.57792574 7.02730863 -1.375 5.1875 C-5.85896874 3.15903795 -8.21470208 4.11122001 -12 7 Z " fill="#41FDFE" transform="translate(472,240)"/>
<path d="M0 0 C1.65 0 3.3 0 5 0 C5.33 3.96 5.66 7.92 6 12 C6.66 11.34 7.32 10.68 8 10 C10.20703125 9.62890625 10.20703125 9.62890625 12.8125 9.5625 C13.66457031 9.52253906 14.51664062 9.48257813 15.39453125 9.44140625 C19.44338659 10.3094517 20.66945359 11.55808983 23 15 C23.60777374 19.12204479 23.47034215 23.15760896 23.3125 27.3125 C23.28994141 28.43462891 23.26738281 29.55675781 23.24414062 30.71289062 C23.18533776 33.47662536 23.10320401 36.23762554 23 39 C21.35 39 19.7 39 18 39 C17.97494385 38.37432129 17.9498877 37.74864258 17.92407227 37.10400391 C17.80824727 34.27745381 17.68546015 31.45124831 17.5625 28.625 C17.52318359 27.64015625 17.48386719 26.6553125 17.44335938 25.640625 C17.40146484 24.69960937 17.35957031 23.75859375 17.31640625 22.7890625 C17.27974854 21.91975098 17.24309082 21.05043945 17.20532227 20.15478516 C17.12598456 17.9516738 17.12598456 17.9516738 16 16 C11.81060581 14.78819559 11.81060581 14.78819559 7.83886719 16.18286133 C5.49717135 18.4968871 5.46941289 19.63671825 5.390625 22.88671875 C5.35839844 23.82451172 5.32617188 24.76230469 5.29296875 25.72851562 C5.27169922 27.19321289 5.27169922 27.19321289 5.25 28.6875 C5.22035156 29.67556641 5.19070313 30.66363281 5.16015625 31.68164062 C5.08944508 34.12117596 5.03675735 36.55975525 5 39 C3.35 39 1.7 39 0 39 C0 26.13 0 13.26 0 0 Z " fill="#41FDFE" transform="translate(425,230)"/>
<path d="M0 0 C1.98 0 3.96 0 6 0 C6.40992188 1.10859375 6.81984375 2.2171875 7.2421875 3.359375 C7.78634101 4.82296029 8.33061835 6.28649955 8.875 7.75 C9.14441406 8.47960937 9.41382813 9.20921875 9.69140625 9.9609375 C9.95566406 10.66992188 10.21992187 11.37890625 10.4921875 12.109375 C10.73308105 12.75874023 10.97397461 13.40810547 11.22216797 14.07714844 C12.03990635 16.09865109 13.02479038 18.04958075 14 20 C16.31 13.4 18.62 6.8 21 0 C22.98 0 24.96 0 27 0 C24.76480261 7.95264464 22.00318169 15.65844151 19.0625 23.375 C18.63259766 24.53644531 18.20269531 25.69789063 17.75976562 26.89453125 C17.33501953 28.00957031 16.91027344 29.12460937 16.47265625 30.2734375 C16.09375244 31.27810059 15.71484863 32.28276367 15.32446289 33.31787109 C13.90419181 36.19401821 12.44532659 37.94106337 10 40 C7.21857957 40.50755847 4.8542771 40.19028514 2 40 C2.33 38.35 2.66 36.7 3 35 C4.98 34.34 6.96 33.68 9 33 C10.33868769 28.53667115 9.56811459 25.93462688 7.91015625 21.640625 C7.45576172 20.44308594 7.00136719 19.24554688 6.53320312 18.01171875 C6.04339713 16.7576451 5.5531575 15.50374074 5.0625 14.25 C4.57497998 12.98092598 4.08863888 11.7113984 3.60351562 10.44140625 C2.71995646 8.1294056 1.83061007 5.81960309 0.93383789 3.51269531 C0 1 0 1 0 0 Z " fill="#41FDFE" transform="translate(1051,240)"/>
<path d="M0 0 C1.98 0 3.96 0 6 0 C6.40992188 1.10859375 6.81984375 2.2171875 7.2421875 3.359375 C7.78634101 4.82296029 8.33061835 6.28649955 8.875 7.75 C9.14441406 8.47960937 9.41382813 9.20921875 9.69140625 9.9609375 C9.95566406 10.66992188 10.21992187 11.37890625 10.4921875 12.109375 C10.73308105 12.75874023 10.97397461 13.40810547 11.22216797 14.07714844 C12.03990635 16.09865109 13.02479038 18.04958075 14 20 C16.31 13.4 18.62 6.8 21 0 C22.98 0 24.96 0 27 0 C24.76480261 7.95264464 22.00318169 15.65844151 19.0625 23.375 C18.63259766 24.53644531 18.20269531 25.69789063 17.75976562 26.89453125 C17.33501953 28.00957031 16.91027344 29.12460937 16.47265625 30.2734375 C16.09375244 31.27810059 15.71484863 32.28276367 15.32446289 33.31787109 C13.90419181 36.19401821 12.44532659 37.94106337 10 40 C7.21857957 40.50755847 4.8542771 40.19028514 2 40 C2.33 38.35 2.66 36.7 3 35 C4.98 34.34 6.96 33.68 9 33 C10.33868769 28.53667115 9.56811459 25.93462688 7.91015625 21.640625 C7.45576172 20.44308594 7.00136719 19.24554688 6.53320312 18.01171875 C6.04339713 16.7576451 5.5531575 15.50374074 5.0625 14.25 C4.57497998 12.98092598 4.08863888 11.7113984 3.60351562 10.44140625 C2.71995646 8.1294056 1.83061007 5.81960309 0.93383789 3.51269531 C0 1 0 1 0 0 Z " fill="#41FDFE" transform="translate(723,240)"/>
<path d="M0 0 C2.43652143 1.80521716 3.400008 3.35173738 5 6 C4.34 6.66 3.68 7.32 3 8 C-0.01305957 7.61121812 -1.39685311 6.73543126 -4 5 C-7.14221967 5.31506627 -7.14221967 5.31506627 -10 6 C-10 7.32 -10 8.64 -10 10 C-9.16855469 10.25394531 -8.33710937 10.50789062 -7.48046875 10.76953125 C-6.39378906 11.11371094 -5.30710937 11.45789063 -4.1875 11.8125 C-2.56908203 12.31716797 -2.56908203 12.31716797 -0.91796875 12.83203125 C1.86061249 13.94420768 3.28763079 14.58391742 5 17 C5.77333333 23.96 5.77333333 23.96 3.1875 27.4375 C-1.21053812 30.5789558 -5.7942665 30.50319041 -11 30 C-14.53786617 28.56979878 -15.63735151 27.74256596 -17.3125 24.3125 C-17.539375 23.549375 -17.76625 22.78625 -18 22 C-17 21 -17 21 -14.5625 20.75 C-13.2940625 20.87375 -13.2940625 20.87375 -12 21 C-11.34 21.99 -10.68 22.98 -10 24 C-5.34854408 24.38024775 -5.34854408 24.38024775 -1 23 C-1.04147007 21.03349365 -1.04147007 21.03349365 -2 19 C-4.67516413 17.77613225 -4.67516413 17.77613225 -7.875 17 C-13.53271934 15.47309743 -13.53271934 15.47309743 -15.8828125 13.09375 C-17.66106362 9.76108356 -17.01410764 7.54937675 -16 4 C-12.03977234 -1.14829596 -5.99997035 -1.24137317 0 0 Z " fill="#41FDFE" transform="translate(943,240)"/>
<path d="M0 0 C2.43652143 1.80521716 3.400008 3.35173738 5 6 C4.34 6.66 3.68 7.32 3 8 C-0.01305957 7.61121812 -1.39685311 6.73543126 -4 5 C-7.14221967 5.31506627 -7.14221967 5.31506627 -10 6 C-10 7.32 -10 8.64 -10 10 C-9.16855469 10.25394531 -8.33710937 10.50789062 -7.48046875 10.76953125 C-6.39378906 11.11371094 -5.30710937 11.45789063 -4.1875 11.8125 C-2.56908203 12.31716797 -2.56908203 12.31716797 -0.91796875 12.83203125 C1.86061249 13.94420768 3.28763079 14.58391742 5 17 C5.77333333 23.96 5.77333333 23.96 3.1875 27.4375 C-1.21053812 30.5789558 -5.7942665 30.50319041 -11 30 C-14.53786617 28.56979878 -15.63735151 27.74256596 -17.3125 24.3125 C-17.539375 23.549375 -17.76625 22.78625 -18 22 C-17 21 -17 21 -14.5625 20.75 C-13.2940625 20.87375 -13.2940625 20.87375 -12 21 C-11.34 21.99 -10.68 22.98 -10 24 C-5.34854408 24.38024775 -5.34854408 24.38024775 -1 23 C-1.04147007 21.03349365 -1.04147007 21.03349365 -2 19 C-4.67516413 17.77613225 -4.67516413 17.77613225 -7.875 17 C-13.53271934 15.47309743 -13.53271934 15.47309743 -15.8828125 13.09375 C-17.66106362 9.76108356 -17.01410764 7.54937675 -16 4 C-12.03977234 -1.14829596 -5.99997035 -1.24137317 0 0 Z " fill="#41FDFE" transform="translate(903,240)"/>
<path d="M0 0 C2.43652143 1.80521716 3.400008 3.35173738 5 6 C4.34 6.66 3.68 7.32 3 8 C-0.01305957 7.61121812 -1.39685311 6.73543126 -4 5 C-7.14221967 5.31506627 -7.14221967 5.31506627 -10 6 C-10 7.32 -10 8.64 -10 10 C-9.16855469 10.25394531 -8.33710937 10.50789062 -7.48046875 10.76953125 C-6.39378906 11.11371094 -5.30710937 11.45789063 -4.1875 11.8125 C-2.56908203 12.31716797 -2.56908203 12.31716797 -0.91796875 12.83203125 C1.86061249 13.94420768 3.28763079 14.58391742 5 17 C5.77333333 23.96 5.77333333 23.96 3.1875 27.4375 C-1.21053812 30.5789558 -5.7942665 30.50319041 -11 30 C-14.53786617 28.56979878 -15.63735151 27.74256596 -17.3125 24.3125 C-17.539375 23.549375 -17.76625 22.78625 -18 22 C-17 21 -17 21 -14.5625 20.75 C-13.2940625 20.87375 -13.2940625 20.87375 -12 21 C-11.34 21.99 -10.68 22.98 -10 24 C-5.34854408 24.38024775 -5.34854408 24.38024775 -1 23 C-1.04147007 21.03349365 -1.04147007 21.03349365 -2 19 C-4.67516413 17.77613225 -4.67516413 17.77613225 -7.875 17 C-13.53271934 15.47309743 -13.53271934 15.47309743 -15.8828125 13.09375 C-17.66106362 9.76108356 -17.01410764 7.54937675 -16 4 C-12.03977234 -1.14829596 -5.99997035 -1.24137317 0 0 Z " fill="#41FDFE" transform="translate(679,240)"/>
<path d="M0 0 C1.65 0 3.3 0 5 0 C5.02187378 0.93066284 5.02187378 0.93066284 5.04418945 1.88012695 C5.11866588 4.69154633 5.21532564 7.50177749 5.3125 10.3125 C5.33505859 11.28896484 5.35761719 12.26542969 5.38085938 13.27148438 C5.41630859 14.20927734 5.45175781 15.14707031 5.48828125 16.11328125 C5.51446533 16.97735596 5.54064941 17.84143066 5.56762695 18.73168945 C6.08827239 21.46309358 6.72189738 22.42396034 9 24 C12.64541845 23.76522801 12.64541845 23.76522801 16 23 C16.80652508 20.11832319 17.17515006 17.43968453 17.31640625 14.453125 C17.35830078 13.60878906 17.40019531 12.76445312 17.44335938 11.89453125 C17.48267578 11.02183594 17.52199219 10.14914063 17.5625 9.25 C17.60568359 8.36183594 17.64886719 7.47367188 17.69335938 6.55859375 C17.79913615 4.37254037 17.90122546 2.18637911 18 0 C19.65 0 21.3 0 23 0 C23 9.57 23 19.14 23 29 C21.35 29 19.7 29 18 29 C17.67 28.34 17.34 27.68 17 27 C16.01 27.7734375 16.01 27.7734375 15 28.5625 C11.54511662 30.21796495 9.67265509 30.16492563 5.96484375 29.8125 C2.67785751 28.45326911 1.73765764 27.14926473 0 24 C-0.48715743 19.88429446 -0.37572622 15.82437616 -0.25 11.6875 C-0.22292969 10.00430664 -0.22292969 10.00430664 -0.1953125 8.28710938 C-0.14827856 5.52386553 -0.08256317 2.76237302 0 0 Z " fill="#41FDFE" transform="translate(953,240)"/>
<path d="M0 0 C1.65 0 3.3 0 5 0 C5.33 0.66 5.66 1.32 6 2 C6.66 1.34 7.32 0.68 8 0 C12.63549529 -0.69451672 16.71362161 -0.94125248 20.5625 1.875 C22.86046691 5.27199456 23.12008763 7.14405098 23.09765625 11.2265625 C23.09443359 12.2578125 23.09121094 13.2890625 23.08789062 14.3515625 C23.07951172 15.43179688 23.07113281 16.51203125 23.0625 17.625 C23.05798828 18.71296875 23.05347656 19.8009375 23.04882812 20.921875 C23.03701776 23.61463789 23.02054778 26.30729188 23 29 C21.35 29 19.7 29 18 29 C17.98598145 28.12263184 17.98598145 28.12263184 17.97167969 27.22753906 C17.91786721 24.5675142 17.83424551 21.90922778 17.75 19.25 C17.73582031 18.32960938 17.72164062 17.40921875 17.70703125 16.4609375 C17.55781506 11.05423193 17.55781506 11.05423193 15.1171875 6.3515625 C13.04897845 4.7444097 13.04897845 4.7444097 10.375 5.125 C7.85594875 5.86467913 7.85594875 5.86467913 6 8 C5.62995706 10.22658154 5.62995706 10.22658154 5.5859375 12.7890625 C5.54726563 13.73007813 5.50859375 14.67109375 5.46875 15.640625 C5.4378125 16.62546875 5.406875 17.6103125 5.375 18.625 C5.31699219 20.11386719 5.31699219 20.11386719 5.2578125 21.6328125 C5.1633686 24.08835385 5.07780125 26.5438841 5 29 C3.35 29 1.7 29 0 29 C0 19.43 0 9.86 0 0 Z " fill="#41FDFE" transform="translate(605,240)"/>
<path d="M0 0 C1.65 0 3.3 0 5 0 C5 2.31 5 4.62 5 7 C6.98 7 8.96 7 11 7 C11 8.32 11 9.64 11 11 C9.02 11 7.04 11 5 11 C5 17.6 5 24.2 5 31 C6.98 31.33 8.96 31.66 11 32 C10.505 34.475 10.505 34.475 10 37 C3.54735847 36.39126023 3.54735847 36.39126023 1.2878418 34.77612305 C-0.44980478 32.37965313 -0.34396925 30.83555983 -0.29296875 27.89453125 C-0.28330078 26.91162109 -0.27363281 25.92871094 -0.26367188 24.91601562 C-0.23853516 23.89185547 -0.21339844 22.86769531 -0.1875 21.8125 C-0.17396484 20.77673828 -0.16042969 19.74097656 -0.14648438 18.67382812 C-0.11111389 16.11536301 -0.06175544 13.5579422 0 11 C-1.65 11 -3.3 11 -5 11 C-5 9.68 -5 8.36 -5 7 C-3.35 7 -1.7 7 0 7 C0 4.69 0 2.38 0 0 Z " fill="#41FDFE" transform="translate(872,233)"/>
<path d="M0 0 C1.65 0 3.3 0 5 0 C5 2.31 5 4.62 5 7 C6.98 7 8.96 7 11 7 C11 8.32 11 9.64 11 11 C9.02 11 7.04 11 5 11 C5 17.6 5 24.2 5 31 C6.98 31.33 8.96 31.66 11 32 C10.505 34.475 10.505 34.475 10 37 C3.54735847 36.39126023 3.54735847 36.39126023 1.2878418 34.77612305 C-0.44980478 32.37965313 -0.34396925 30.83555983 -0.29296875 27.89453125 C-0.28330078 26.91162109 -0.27363281 25.92871094 -0.26367188 24.91601562 C-0.23853516 23.89185547 -0.21339844 22.86769531 -0.1875 21.8125 C-0.17396484 20.77673828 -0.16042969 19.74097656 -0.14648438 18.67382812 C-0.11111389 16.11536301 -0.06175544 13.5579422 0 11 C-1.65 11 -3.3 11 -5 11 C-5 9.68 -5 8.36 -5 7 C-3.35 7 -1.7 7 0 7 C0 4.69 0 2.38 0 0 Z " fill="#41FDFE" transform="translate(691,233)"/>
<path d="M0 0 C1.65 0 3.3 0 5 0 C5 2.31 5 4.62 5 7 C6.98 7 8.96 7 11 7 C11 8.32 11 9.64 11 11 C9.02 11 7.04 11 5 11 C5 17.6 5 24.2 5 31 C6.98 31.33 8.96 31.66 11 32 C10.505 34.475 10.505 34.475 10 37 C3.54735847 36.39126023 3.54735847 36.39126023 1.2878418 34.77612305 C-0.44980478 32.37965313 -0.34396925 30.83555983 -0.29296875 27.89453125 C-0.28330078 26.91162109 -0.27363281 25.92871094 -0.26367188 24.91601562 C-0.23853516 23.89185547 -0.21339844 22.86769531 -0.1875 21.8125 C-0.17396484 20.77673828 -0.16042969 19.74097656 -0.14648438 18.67382812 C-0.11111389 16.11536301 -0.06175544 13.5579422 0 11 C-1.65 11 -3.3 11 -5 11 C-5 9.68 -5 8.36 -5 7 C-3.35 7 -1.7 7 0 7 C0 4.69 0 2.38 0 0 Z " fill="#41FDFE" transform="translate(636,233)"/>
<path d="M0 0 C5 0 10 0 15 0 C15 1.65 15 3.3 15 5 C13.88625 5.12375 12.7725 5.2475 11.625 5.375 C7.96896323 5.6465813 7.96896323 5.6465813 6 8 C5.62995706 10.22658154 5.62995706 10.22658154 5.5859375 12.7890625 C5.54726563 13.73007813 5.50859375 14.67109375 5.46875 15.640625 C5.4378125 16.62546875 5.406875 17.6103125 5.375 18.625 C5.31699219 20.11386719 5.31699219 20.11386719 5.2578125 21.6328125 C5.1633686 24.08835385 5.07780125 26.5438841 5 29 C3.35 29 1.7 29 0 29 C0 19.43 0 9.86 0 0 Z " fill="#41FDFE" transform="translate(707,240)"/>
<path d="M0 0 C5 0 10 0 15 0 C15 1.65 15 3.3 15 5 C13.88625 5.12375 12.7725 5.2475 11.625 5.375 C7.96896323 5.6465813 7.96896323 5.6465813 6 8 C5.62995706 10.22658154 5.62995706 10.22658154 5.5859375 12.7890625 C5.54726563 13.73007813 5.50859375 14.67109375 5.46875 15.640625 C5.4378125 16.62546875 5.406875 17.6103125 5.375 18.625 C5.31699219 20.11386719 5.31699219 20.11386719 5.2578125 21.6328125 C5.1633686 24.08835385 5.07780125 26.5438841 5 29 C3.35 29 1.7 29 0 29 C0 19.43 0 9.86 0 0 Z " fill="#41FDFE" transform="translate(484,240)"/>
<path d="M0 0 C1.65 0 3.3 0 5 0 C5 12.87 5 25.74 5 39 C3.35 39 1.7 39 0 39 C0 26.13 0 13.26 0 0 Z " fill="#41FDFE" transform="translate(1043,230)"/>
<path d="M0 0 C1.65 0 3.3 0 5 0 C5 9.57 5 19.14 5 29 C3.35 29 1.7 29 0 29 C0 19.43 0 9.86 0 0 Z " fill="#41FDFE" transform="translate(652,240)"/>
<path d="M0 0 C0.625 1.875 0.625 1.875 1 4 C0.34 4.66 -0.32 5.32 -1 6 C-3.625 5.625 -3.625 5.625 -6 5 C-6 3.35 -6 1.7 -6 0 C-3.50907189 -1.24546405 -2.58919267 -0.7767578 0 0 Z " fill="#41FDFE" transform="translate(657,230)"/>
</svg>
