<svg width="42" height="42" viewBox="0 0 42 42" fill="none" xmlns="http://www.w3.org/2000/svg">
<rect width="42" height="42" fill="white"/>
<path d="M27.125 34.8687L19.6875 27.4313L22.1375 24.9812L27.125 29.9688L37.0125 20.0813L39.4625 22.5312L27.125 34.8687ZM36.75 17.5H33.25V8.75H29.75V14H12.25V8.75H8.75V33.25H19.25V36.75H8.75C7.7875 36.75 6.96383 36.4076 6.279 35.7228C5.59417 35.0379 5.25117 34.2137 5.25 33.25V8.75C5.25 7.7875 5.593 6.96383 6.279 6.279C6.965 5.59417 7.78867 5.25117 8.75 5.25H16.0563C16.3771 4.22917 17.0042 3.39092 17.9375 2.73525C18.8708 2.07958 19.8917 1.75117 21 1.75C22.1667 1.75 23.2097 2.07842 24.129 2.73525C25.0483 3.39208 25.6678 4.23033 25.9875 5.25H33.25C34.2125 5.25 35.0368 5.593 35.7228 6.279C36.4088 6.965 36.7512 7.78867 36.75 8.75V17.5ZM21 8.75C21.4958 8.75 21.9118 8.582 22.2478 8.246C22.5838 7.91 22.7512 7.49467 22.75 7C22.7488 6.50533 22.5808 6.09 22.246 5.754C21.9112 5.418 21.4958 5.25 21 5.25C20.5042 5.25 20.0888 5.418 19.754 5.754C19.4192 6.09 19.2512 6.50533 19.25 7C19.2488 7.49467 19.4168 7.91058 19.754 8.24775C20.0912 8.58492 20.5065 8.75233 21 8.75Z" fill="#18044C"/>
</svg>
