<svg width="33" height="33" viewBox="0 0 33 33" fill="none" xmlns="http://www.w3.org/2000/svg">
<path d="M12.6086 23.3752H17.8754V8.24999C17.8754 8.0694 17.8399 7.89058 17.7707 7.72374C17.7016 7.5569 17.6003 7.40531 17.4725 7.27764C17.3448 7.14998 17.1932 7.04872 17.0263 6.97967C16.8594 6.91062 16.6806 6.87513 16.5 6.87521H6.87522M4.125 17.8748V21.9998C4.12491 22.1804 4.16041 22.3592 4.22946 22.5261C4.29851 22.693 4.39976 22.8446 4.52743 22.9723C4.6551 23.1 4.80668 23.2014 4.97352 23.2705C5.14036 23.3396 5.31919 23.3752 5.49978 23.3752H6.69636" stroke="#18044C" stroke-linecap="round" stroke-linejoin="round"/>
<path d="M20.4468 23.3752H17.8748V9.62544H23.7191C24.0277 9.61365 24.3312 9.70626 24.5807 9.88829C24.8302 10.0703 25.0109 10.3312 25.0939 10.6286L26.1248 14.4375L27.8302 14.8639C28.1354 14.9388 28.4057 15.1162 28.5958 15.3664C28.786 15.6166 28.8845 15.9245 28.875 16.2386V22.0004C28.875 22.3651 28.7302 22.7147 28.4723 22.9726C28.2145 23.2304 27.8648 23.3752 27.5002 23.3752H26.2759" stroke="#18044C" stroke-linecap="round" stroke-linejoin="round"/>
<path d="M4.125 12.375H12.375M9.62478 20.625C9.26007 20.6193 8.89789 20.6863 8.55931 20.822C8.22072 20.9576 7.91251 21.1593 7.6526 21.4152C7.39269 21.6711 7.18629 21.9762 7.0454 22.3126C6.90451 22.649 6.83196 23.0101 6.83196 23.3749C6.83196 23.7396 6.90451 24.1007 7.0454 24.4372C7.18629 24.7736 7.39269 25.0787 7.6526 25.3346C7.91251 25.5905 8.22072 25.7922 8.55931 25.9278C8.89789 26.0635 9.26007 26.1304 9.62478 26.1248C10.3467 26.1136 11.0353 25.819 11.5419 25.3045C12.0485 24.79 12.3324 24.0969 12.3324 23.3749C12.3324 22.6529 12.0485 21.9598 11.5419 21.4453C11.0353 20.9308 10.3467 20.6362 9.62478 20.625ZM23.3752 20.625C22.6458 20.625 21.9463 20.9148 21.4305 21.4305C20.9148 21.9463 20.625 22.6458 20.625 23.3752C20.625 24.1046 20.9148 24.8042 21.4305 25.3199C21.9463 25.8357 22.6458 26.1254 23.3752 26.1254C24.1046 26.1254 24.8042 25.8357 25.3199 25.3199C25.8357 24.8042 26.1254 24.1046 26.1254 23.3752C26.1254 22.6458 25.8357 21.9463 25.3199 21.4305C24.8042 20.9148 24.1046 20.625 23.3752 20.625Z" stroke="#36F4F4" stroke-linecap="round" stroke-linejoin="round"/>
</svg>
