<svg width="18" height="20" viewBox="0 0 18 20" fill="none" xmlns="http://www.w3.org/2000/svg">
<path d="M17.761 17.53C17.1407 16.3828 16.4487 15.276 15.689 14.216C15.5482 13.9596 15.4375 13.6878 15.359 13.406C15.3057 13.196 15.3057 12.976 15.359 12.766C15.6223 12.1147 15.8323 11.447 15.989 10.763C16.0502 9.80766 15.9829 8.84844 15.789 7.911C15.6198 6.983 15.3585 6.07418 15.009 5.198C14.9968 5.15816 14.9764 5.12131 14.9492 5.08978C14.922 5.05825 14.8885 5.03273 14.8509 5.01486C14.8132 4.99698 14.7723 4.98714 14.7307 4.98596C14.689 4.98478 14.6476 4.99229 14.609 5.008C14.5312 5.03903 14.4686 5.09936 14.4347 5.17602C14.4009 5.25269 14.3985 5.33957 14.428 5.418C14.758 6.259 15.003 7.131 15.158 8.021C15.316 8.899 15.36 9.794 15.288 10.683C15.118 11.315 14.898 11.929 14.628 12.525C14.5201 12.8713 14.4995 13.2388 14.568 13.595C14.658 13.9437 14.7847 14.2777 14.948 14.597C15.6576 15.641 16.3028 16.7273 16.88 17.85C16.978 18.09 17.002 18.356 16.95 18.61C16.9359 18.6993 16.8963 18.7827 16.836 18.8501C16.7757 18.9175 16.6972 18.9661 16.61 18.99C16.272 19.0756 15.914 19.0292 15.609 18.86C15.0607 18.5663 14.572 18.1729 14.168 17.7C13.311 16.8393 12.6308 15.8191 12.166 14.697C11.714 13.5833 11.5093 12.3846 11.566 11.184V9.522C11.556 9.13667 11.526 8.75333 11.476 8.372C11.4311 8.08239 11.3608 7.79729 11.266 7.52C11.2301 7.43716 11.175 7.36405 11.1053 7.30668C11.0356 7.2493 10.9532 7.20931 10.865 7.19C10.2319 7.08604 9.5861 7.08604 8.953 7.19C7.612 7.4 6.14 7.9 4.949 7.97C4.72985 7.98894 4.5091 7.96516 4.299 7.9L4.359 7.3C4.469 7.21 4.589 7.11 4.749 7L6 6.4L8.082 5.529C8.632 5.329 9.173 5.139 9.724 4.979C10.2767 4.81515 10.8379 4.68128 11.405 4.578C11.4806 4.56341 11.5473 4.51939 11.5904 4.45563C11.6336 4.39187 11.6496 4.31358 11.635 4.238C11.6204 4.16241 11.5764 4.09571 11.5126 4.05258C11.4489 4.00945 11.3706 3.99341 11.295 4.008C10.7043 4.09866 10.1203 4.222 9.543 4.378C8.973 4.538 8.413 4.708 7.852 4.908L5.68 5.738L4.569 6.309C4.729 4.498 4.829 2.696 5.059 0.893998C5.06346 0.824622 5.04196 0.756066 4.99867 0.70167C4.95538 0.647273 4.8934 0.610926 4.8248 0.5997C4.75619 0.588473 4.68586 0.60317 4.62749 0.640931C4.56912 0.678693 4.52688 0.736818 4.509 0.803998C4.099 2.806 3.739 4.808 3.509 6.81C2.697 13.406 3.248 10.413 2.737 15.308C2.25475 15.3181 1.78849 15.4828 1.407 15.778C0.947396 16.1393 0.634095 16.6547 0.525002 17.229C0.457725 17.5061 0.456041 17.795 0.520083 18.0728C0.584126 18.3506 0.712128 18.6097 0.893904 18.8293C1.07568 19.049 1.30621 19.2232 1.56716 19.338C1.8281 19.4529 2.11225 19.5053 2.397 19.491C2.43327 19.4951 2.47 19.4919 2.50497 19.4814C2.53994 19.471 2.57243 19.4535 2.60047 19.4302C2.62851 19.4068 2.65152 19.378 2.66811 19.3455C2.68471 19.313 2.69453 19.2774 2.697 19.241C2.70261 19.1683 2.67962 19.0962 2.63293 19.0402C2.58624 18.9842 2.51954 18.9486 2.447 18.941C2.26643 18.9366 2.08944 18.8897 1.93036 18.8042C1.77129 18.7186 1.6346 18.5968 1.53137 18.4486C1.42814 18.3004 1.36128 18.1299 1.3362 17.951C1.31112 17.7722 1.32852 17.5899 1.387 17.419C1.47663 17.0724 1.68964 16.7705 1.98606 16.5698C2.28248 16.3691 2.64194 16.2835 2.997 16.329C3.29784 16.3777 3.57201 16.5306 3.77161 16.7609C3.9712 16.9912 4.08354 17.2843 4.089 17.589C4.169 18.22 3.909 18.881 3.088 18.911C3.00558 18.9133 2.92702 18.9465 2.86779 19.0038C2.80857 19.0612 2.77297 19.1387 2.768 19.221C2.76796 19.3042 2.8003 19.3841 2.85816 19.4438C2.91603 19.5035 2.99488 19.5384 3.078 19.541C3.33934 19.5608 3.60178 19.5213 3.84571 19.4255C4.08965 19.3296 4.30879 19.1799 4.48676 18.9875C4.66473 18.7951 4.79694 18.565 4.87352 18.3144C4.9501 18.0637 4.96906 17.799 4.929 17.54C4.92638 17.0633 4.77573 16.5993 4.49787 16.2119C4.22002 15.8246 3.82869 15.5332 3.378 15.378C3.70467 13.5693 3.98134 11.7543 4.208 9.933C4.208 9.543 4.288 9.152 4.328 8.762C4.58134 8.82866 4.83867 8.85533 5.1 8.842C6.28 8.842 7.782 8.352 9.163 8.181C9.61807 8.12164 10.0789 8.12164 10.534 8.181V8.561C10.574 8.89433 10.594 9.228 10.594 9.562V11.164C10.5198 12.4764 10.7246 13.7896 11.195 15.017C11.1355 14.9917 11.07 14.984 11.0063 14.9946C10.9425 15.0052 10.8831 15.0338 10.835 15.077C10.553 15.3477 10.3027 15.6447 10.084 15.968C9.86183 16.3158 9.70903 16.7032 9.634 17.109C9.57719 17.5078 9.49367 17.9024 9.384 18.29C9.334 18.47 9.274 18.64 9.154 18.7C8.783 18.9 8.553 18.86 8.403 18.65C8.10236 18.0279 7.96799 17.3385 8.013 16.649C7.913 15.633 8.035 14.609 8.373 13.646C8.74807 12.6961 9.374 11.8659 10.184 11.244C10.2369 11.1979 10.2706 11.1336 10.2784 11.0638C10.2861 10.994 10.2674 10.9239 10.2259 10.8673C10.1844 10.8107 10.1231 10.7717 10.0542 10.7582C9.98535 10.7446 9.91389 10.7574 9.854 10.794C8.88387 11.4124 8.10159 12.2846 7.592 13.316C7.14499 14.3889 6.94341 15.5482 7.002 16.709C6.977 17.599 7.187 18.479 7.612 19.261C7.72126 19.4162 7.86157 19.547 8.02405 19.6452C8.18653 19.7433 8.36763 19.8066 8.55586 19.831C8.74409 19.8555 8.93534 19.8405 9.1175 19.7872C9.29965 19.7338 9.46873 19.6432 9.614 19.521C9.882 19.346 10.078 19.079 10.164 18.771C10.2947 18.2677 10.378 17.757 10.414 17.239C10.447 16.92 10.542 16.611 10.694 16.329C10.8633 16.0357 11.0637 15.7653 11.295 15.518C11.3319 15.4876 11.3568 15.4451 11.365 15.398C11.877 16.5109 12.5781 17.5266 13.437 18.4C13.9433 18.9541 14.5431 19.4147 15.209 19.761C15.7322 20.0147 16.3302 20.068 16.89 19.911C17.0958 19.8527 17.2852 19.7474 17.4433 19.6033C17.6014 19.4593 17.7239 19.2805 17.801 19.081C17.974 18.5756 17.9598 18.0248 17.761 17.529" fill="#18044C"/>
</svg>
